<svg width="25" height="24" viewBox="0 0 25 24" fill="none" xmlns="http://www.w3.org/2000/svg">
<g opacity="0.7">
<mask id="mask0_435_448" style="mask-type:luminance" maskUnits="userSpaceOnUse" x="0" y="0" width="25" height="24">
<path d="M0.5 0H24.5V24H0.5V0Z" fill="white"/>
</mask>
<g mask="url(#mask0_435_448)">
<path d="M12.5 4C14.0823 4 15.629 4.46919 16.9446 5.34824C18.2602 6.22729 19.2855 7.47672 19.891 8.93853C20.4965 10.4003 20.655 12.0089 20.3463 13.5607C20.0376 15.1126 19.2757 16.538 18.1569 17.6569C17.038 18.7757 15.6126 19.5376 14.0607 19.8463C12.5089 20.155 10.9003 19.9965 9.43853 19.391C7.97672 18.7855 6.72729 17.7602 5.84824 16.4446C4.96919 15.129 4.5 13.5823 4.5 12C4.5 9.87827 5.34285 7.84344 6.84315 6.34315C8.34344 4.84285 10.3783 4 12.5 4ZM8.7 13.69L11.091 16.081C11.2767 16.2668 11.4972 16.4142 11.7399 16.5148C11.9826 16.6153 12.2428 16.6671 12.5055 16.6671C12.7682 16.6671 13.0283 16.6153 13.2711 16.5148C13.5138 16.4142 13.7343 16.2668 13.92 16.081L16.3 13.69L16.316 13.673C16.3806 13.6108 16.432 13.5363 16.4671 13.4538C16.5023 13.3713 16.5204 13.2826 16.5205 13.193C16.5206 13.1033 16.5026 13.0146 16.4676 12.932C16.4326 12.8495 16.3813 12.7748 16.3168 12.7126C16.2523 12.6503 16.1759 12.6017 16.0922 12.5696C16.0085 12.5375 15.9192 12.5226 15.8296 12.5258C15.74 12.529 15.652 12.5503 15.5708 12.5883C15.4896 12.6263 15.4169 12.6803 15.357 12.747L13.157 14.947L13.171 8C13.1643 7.8277 13.0912 7.66468 12.9669 7.54514C12.8427 7.4256 12.6769 7.35882 12.5045 7.35882C12.3321 7.35882 12.1663 7.4256 12.0421 7.54514C11.9178 7.66468 11.8447 7.8277 11.838 8V14.942L9.638 12.747C9.578 12.6774 9.50427 12.6209 9.42142 12.5811C9.33858 12.5414 9.2484 12.5191 9.15656 12.5159C9.06472 12.5126 8.97319 12.5283 8.88771 12.5621C8.80224 12.5958 8.72466 12.6469 8.65985 12.712C8.59504 12.7772 8.54439 12.8551 8.51108 12.9407C8.47778 13.0264 8.46253 13.118 8.4663 13.2098C8.47007 13.3016 8.49278 13.3917 8.53299 13.4743C8.57321 13.5569 8.63007 13.6304 8.7 13.69Z" fill="white"/>
</g>
</g>
</svg>
