<svg width="23" height="21" viewBox="0 0 23 21" fill="none" xmlns="http://www.w3.org/2000/svg">
<path fill-rule="evenodd" clip-rule="evenodd" d="M5.535 9.58594H0.742005C0.64448 9.58594 0.547914 9.60523 0.457825 9.64258C0.367737 9.67993 0.285895 9.7347 0.216981 9.80371C0.148066 9.87272 0.0934289 9.95454 0.0561988 10.0447C0.0189687 10.1348 -0.00013076 10.2315 6.75734e-07 10.329V19.9139C-0.000130962 20.0114 0.0189717 20.108 0.0562141 20.1981C0.0934564 20.2882 0.148114 20.37 0.217042 20.439C0.285969 20.5079 0.367819 20.5625 0.457902 20.5997C0.547985 20.637 0.644527 20.6561 0.742005 20.656H5.535C5.63253 20.6561 5.72912 20.637 5.81926 20.5997C5.9094 20.5625 5.99133 20.5079 6.06033 20.439C6.12934 20.3701 6.18408 20.2882 6.22144 20.1981C6.25879 20.108 6.278 20.0115 6.278 19.9139V10.329C6.27813 10.2314 6.259 10.1346 6.22171 10.0444C6.18442 9.95423 6.1297 9.87236 6.06068 9.80334C5.99166 9.73432 5.90969 9.6795 5.81949 9.64221C5.72928 9.60492 5.63261 9.58581 5.535 9.58594ZM22.017 4.79297H17.224C17.0269 4.79297 16.838 4.87128 16.6986 5.01062C16.5593 5.14996 16.481 5.33895 16.481 5.53601V19.9139C16.481 20.0115 16.5002 20.108 16.5376 20.1981C16.5749 20.2882 16.6297 20.3701 16.6987 20.439C16.7677 20.5079 16.8496 20.5625 16.9397 20.5997C17.0299 20.637 17.1265 20.6561 17.224 20.656H22.017C22.1145 20.6561 22.211 20.637 22.3011 20.5997C22.3912 20.5625 22.473 20.5079 22.542 20.439C22.6109 20.37 22.6655 20.2882 22.7028 20.1981C22.74 20.108 22.7591 20.0114 22.759 19.9139V5.53601C22.7591 5.43849 22.74 5.34185 22.7028 5.25171C22.6656 5.16157 22.611 5.07963 22.542 5.01062C22.4731 4.94161 22.3913 4.88696 22.3012 4.84961C22.2111 4.81226 22.1145 4.79297 22.017 4.79297ZM21.274 19.171H17.966V6.27698H21.274V19.171ZM13.774 0H8.98201C8.78496 0 8.59596 0.0783118 8.45662 0.217651C8.31728 0.356991 8.23901 0.545864 8.23901 0.74292V19.9139C8.23901 20.0115 8.25823 20.108 8.29558 20.1981C8.33293 20.2882 8.38767 20.3701 8.45668 20.439C8.52569 20.5079 8.60762 20.5625 8.69775 20.5997C8.78789 20.637 8.88449 20.6561 8.98201 20.656H13.775C13.9718 20.656 14.1605 20.5778 14.2997 20.4386C14.4388 20.2994 14.517 20.1107 14.517 19.9139V0.74292C14.517 0.545864 14.4387 0.356991 14.2994 0.217651C14.1601 0.0783118 13.9711 0 13.774 0ZM13.032 19.171H9.72301V1.48499H13.032V19.171ZM4.79201 19.171H1.483V11.0709H4.79201V19.171Z" fill="#F9AE1C"/>
</svg>
