<svg width="24" height="24" viewBox="0 0 24 24" fill="none" xmlns="http://www.w3.org/2000/svg">
<mask id="mask0_1145_3266" style="mask-type:luminance" maskUnits="userSpaceOnUse" x="0" y="0" width="24" height="24">
<path d="M24 0H0V24H24V0Z" fill="white"/>
</mask>
<g mask="url(#mask0_1145_3266)">
<path fill-rule="evenodd" clip-rule="evenodd" d="M12.001 21C12.0046 20.1955 12.1173 19.3952 12.336 18.621L12.965 18.985C13.1128 19.0702 13.2885 19.093 13.4532 19.0487C13.618 19.0043 13.7583 18.8964 13.8435 18.7485C13.9286 18.6006 13.9515 18.425 13.9072 18.2603C13.8628 18.0955 13.7548 17.9552 13.607 17.87L12.768 17.384C13.1344 16.5611 13.6218 15.7977 14.214 15.119L14.762 15.668C14.8217 15.7276 14.8925 15.7749 14.9705 15.8072C15.0484 15.8394 15.132 15.856 15.2163 15.8559C15.3007 15.8559 15.3842 15.8392 15.4621 15.8069C15.5401 15.7745 15.6109 15.7272 15.6705 15.6675C15.7301 15.6078 15.7774 15.537 15.8096 15.459C15.8419 15.3811 15.8584 15.2975 15.8584 15.2132C15.8583 15.1288 15.8417 15.0452 15.8093 14.9673C15.777 14.8894 15.7297 14.8186 15.67 14.759L15.131 14.219C15.8248 13.6172 16.6061 13.1242 17.448 12.757L17.856 13.573C17.8935 13.6487 17.9456 13.7161 18.0093 13.7716C18.073 13.827 18.1471 13.8693 18.2272 13.896C18.3073 13.9226 18.392 13.9332 18.4762 13.927C18.5604 13.9209 18.6426 13.8981 18.718 13.86C18.8703 13.7834 18.9861 13.6497 19.0401 13.4879C19.094 13.3262 19.0818 13.1497 19.006 12.997L18.666 12.32C19.4274 12.116 20.2127 12.0152 21.001 12.02C20.9933 14.4031 20.0421 16.6862 18.3555 18.3698C16.6689 20.0535 14.3841 21.0006 12.001 21.004V21ZM12.001 3.00003C11.9996 3.98481 11.8343 4.96245 11.512 5.89297L11.004 5.63901C10.8515 5.56263 10.6749 5.54997 10.513 5.60379C10.3512 5.65761 10.2174 5.7735 10.141 5.92599C10.0646 6.07849 10.0519 6.25512 10.1057 6.41696C10.1596 6.57881 10.2755 6.71265 10.428 6.78903L11.001 7.07602C10.6706 7.72242 10.2636 8.32674 9.78897 8.87601L9.24198 8.32901C9.18297 8.26656 9.11205 8.21656 9.0334 8.18198C8.95475 8.14739 8.86997 8.12892 8.78406 8.12766C8.69815 8.12639 8.61286 8.14234 8.53323 8.17459C8.45359 8.20684 8.38123 8.25471 8.32041 8.3154C8.25959 8.37608 8.21155 8.44836 8.17913 8.52792C8.1467 8.60749 8.13055 8.69275 8.13163 8.77866C8.13271 8.86457 8.15099 8.94938 8.1854 9.02811C8.21981 9.10683 8.26965 9.17789 8.33197 9.23703L8.87197 9.77603C8.32322 10.2533 7.71885 10.6626 7.07198 10.995L6.78598 10.425C6.7077 10.276 6.57413 10.1637 6.41395 10.1121C6.25377 10.0605 6.07973 10.0737 5.92921 10.149C5.77869 10.2242 5.66367 10.3555 5.60884 10.5146C5.55402 10.6737 5.56376 10.848 5.63597 11L5.88798 11.5C4.95913 11.8202 3.98345 11.9834 3.00098 11.983C3.00864 9.60016 3.95992 7.3174 5.64663 5.63425C7.33334 3.9511 9.61812 3.00462 12.001 3.00198V3.00003ZM11.652 16.739C12.0739 15.818 12.6295 14.9645 13.301 14.206L12.835 13.74C12.7753 13.6804 12.7279 13.6096 12.6956 13.5316C12.6633 13.4537 12.6466 13.3702 12.6466 13.2859C12.6465 13.2015 12.6631 13.118 12.6953 13.04C12.7276 12.9621 12.7749 12.8912 12.8345 12.8315C12.8941 12.7718 12.9649 12.7244 13.0428 12.6921C13.1207 12.6598 13.2043 12.6431 13.2886 12.6431C13.373 12.6431 13.4565 12.6596 13.5345 12.6919C13.6124 12.7241 13.6833 12.7714 13.743 12.831L14.209 13.297C15.0012 12.5955 15.8967 12.02 16.864 11.591L16.569 11.002C16.5313 10.9264 16.5089 10.8442 16.503 10.7599C16.4971 10.6757 16.5078 10.5911 16.5346 10.511C16.5614 10.4309 16.6037 10.3569 16.6591 10.2931C16.7145 10.2294 16.7819 10.1772 16.8575 10.1395C16.9331 10.1018 17.0153 10.0794 17.0996 10.0735C17.1838 10.0676 17.2684 10.0783 17.3485 10.1051C17.4286 10.1319 17.5026 10.1742 17.5663 10.2296C17.6301 10.285 17.6823 10.3524 17.72 10.428L18.079 11.145C18.9953 10.873 19.9452 10.7303 20.901 10.721C20.6213 8.79996 19.7287 7.02066 18.356 5.64798C16.9833 4.2753 15.204 3.38266 13.283 3.103C13.2711 4.2531 13.0645 5.39292 12.672 6.47403L13.572 6.92599C13.7014 6.99079 13.8052 7.09737 13.8666 7.22849C13.9279 7.3596 13.9432 7.50757 13.91 7.64847C13.8768 7.78937 13.7971 7.91492 13.6836 8.00485C13.5702 8.09478 13.4297 8.14383 13.285 8.14401C13.1849 8.14407 13.0862 8.1204 12.997 8.07498L12.159 7.655C11.7657 8.42672 11.2761 9.14543 10.702 9.79398L11.169 10.26C11.2896 10.3807 11.3574 10.5443 11.3574 10.715C11.3574 10.8857 11.2896 11.0493 11.169 11.17C11.0483 11.2907 10.8846 11.3585 10.714 11.3585C10.5433 11.3585 10.3796 11.2907 10.259 11.17L9.79198 10.703C9.14404 11.2769 8.42598 11.7665 7.65498 12.16L8.07298 12.998C8.11081 13.0735 8.1334 13.1557 8.13945 13.24C8.1455 13.3242 8.1349 13.4088 8.10825 13.489C8.08159 13.5691 8.03942 13.6432 7.98412 13.7071C7.92882 13.7709 7.8615 13.8232 7.78598 13.861C7.69704 13.9062 7.59873 13.9298 7.49898 13.93C7.37974 13.9301 7.26281 13.8971 7.16127 13.8346C7.05973 13.772 6.97757 13.6825 6.92398 13.576L6.47097 12.676C5.39021 13.0685 4.25075 13.2751 3.10098 13.287C3.38018 15.2082 4.27266 16.9878 5.64543 18.3606C7.0182 19.7333 8.79777 20.6258 10.719 20.905C10.7259 19.9056 10.8795 18.9127 11.175 17.958L10.393 17.505C10.3181 17.4637 10.2521 17.408 10.1991 17.341C10.146 17.274 10.1068 17.1971 10.0838 17.1147C10.0608 17.0324 10.0544 16.9463 10.0651 16.8614C10.0758 16.7766 10.1033 16.6947 10.1459 16.6206C10.1886 16.5466 10.2457 16.4817 10.3137 16.43C10.3818 16.3782 10.4595 16.3405 10.5422 16.3191C10.625 16.2977 10.7112 16.2931 10.7958 16.3055C10.8805 16.3178 10.9617 16.3469 11.035 16.391L11.652 16.739Z" fill="white"/>
</g>
</svg>
