<svg width="24" height="24" viewBox="0 0 24 24" fill="none" xmlns="http://www.w3.org/2000/svg">
<mask id="mask0_1145_3276" style="mask-type:luminance" maskUnits="userSpaceOnUse" x="0" y="0" width="24" height="24">
<path d="M24 0H0V24H24V0Z" fill="white"/>
</mask>
<g mask="url(#mask0_1145_3276)">
<path fill-rule="evenodd" clip-rule="evenodd" d="M13.8251 8.992L12.8501 8.06799L13.6961 7.26801L16.4961 9.91699L15.6511 10.717L14.6761 9.79498L13.7401 10.68L14.7171 11.602L13.8701 12.402L12.8951 11.481L11.9591 12.365L12.9361 13.289L12.0891 14.089L11.1151 13.165L10.1801 14.051L11.1541 14.975L10.3091 15.775L7.50909 13.126L8.35609 12.326L9.33109 13.248L10.2661 12.363L9.2911 11.441L10.1381 10.641L11.1131 11.565L12.0461 10.68L11.0721 9.75598L11.9181 8.95599L12.8921 9.88L13.8271 8.995L13.8251 8.992ZM6.58109 20.037L3.0061 16.654C3.05566 17.6572 3.20064 18.6534 3.43909 19.629C4.47301 19.8538 5.5241 19.9906 6.58109 20.038V20.037ZM9.84309 19.903L3.14309 13.564L2.99609 15.047L8.27209 20.042L9.8391 19.903H9.84309ZM21.0011 7.99402L15.7241 3.00201L14.1571 3.14099L20.8571 9.47998L21.0041 7.99597L21.0011 7.99402ZM17.4211 3.00403C18.4781 3.0514 19.5292 3.18822 20.5631 3.41302C20.8009 4.38915 20.9459 5.38554 20.9961 6.38898L17.4201 3.00201L17.4211 3.00403ZM20.5841 10.822L12.7411 3.396L11.6711 3.685C9.82992 4.24503 8.14281 5.2224 6.74109 6.54102C5.45862 7.74776 4.46701 9.23001 3.84109 10.876L3.4161 12.22L11.2591 19.646L12.3281 19.358C14.1695 18.7977 15.8568 17.8204 17.2591 16.502C18.5415 15.2952 19.5331 13.8129 20.1591 12.167L20.5841 10.822Z" fill="#F9AE1C"/>
</g>
</svg>
