<svg width="24" height="24" viewBox="0 0 24 24" fill="none" xmlns="http://www.w3.org/2000/svg">
<mask id="mask0_1145_3340" style="mask-type:luminance" maskUnits="userSpaceOnUse" x="0" y="0" width="24" height="24">
<path d="M24 0H0V24H24V0Z" fill="white"/>
</mask>
<g mask="url(#mask0_1145_3340)">
<path fill-rule="evenodd" clip-rule="evenodd" d="M19.9221 3.40903L16.2731 8.48502L17.2221 9.19699L20.8851 4.11801C20.9639 3.98982 20.9917 3.83665 20.9629 3.68893C20.9341 3.54121 20.8509 3.40969 20.7297 3.32047C20.6085 3.23124 20.4582 3.19085 20.3086 3.20724C20.159 3.22364 20.021 3.29567 19.9221 3.40903ZM12.0001 4.194C13.1831 4.194 13.7921 3.72902 13.7921 3.59402C13.7921 3.45902 13.1461 2.99399 12.0001 2.99399C10.8171 2.99399 10.2071 3.46002 10.2071 3.59402C10.2071 3.72802 10.8361 4.194 12.0001 4.194ZM13.7921 5.05197C12.6391 5.50039 11.36 5.50039 10.2071 5.05197V5.98703C10.2071 6.12603 10.8361 6.58701 12.0001 6.58701C13.1831 6.58701 13.7921 6.12003 13.7921 5.98703V5.056V5.05197ZM19.8021 18.608V20.999H20.4021C20.5612 20.999 20.7138 20.9358 20.8263 20.8233C20.9388 20.7108 21.0021 20.5581 21.0021 20.399V19.199C21.0021 19.1202 20.9865 19.0422 20.9564 18.9694C20.9262 18.8966 20.882 18.8305 20.8263 18.7747C20.7706 18.719 20.7045 18.6748 20.6317 18.6447C20.5589 18.6145 20.4809 18.599 20.4021 18.599L19.8021 18.608ZM17.3731 18.608V20.999H18.6071V18.608H17.3731ZM12.7231 17.481L15.2811 20.999H16.1811V18.608H15.3151C15.22 18.6078 15.1264 18.585 15.0419 18.5415C14.9574 18.4981 14.8845 18.4352 14.8291 18.358L13.4661 16.458L12.7261 17.484L12.7231 17.481ZM15.5741 9.45401L16.5251 10.166L8.71707 20.999H7.81708V18.608H8.68307C8.77792 18.608 8.87139 18.5856 8.95587 18.5424C9.04035 18.4993 9.11343 18.4368 9.16907 18.36L15.5691 9.45297L15.5741 9.45401ZM4.19705 21V18.609H3.59708C3.43795 18.609 3.28531 18.6722 3.17279 18.7848C3.06027 18.8973 2.99707 19.0499 2.99707 19.209V20.409C2.99707 20.5682 3.06027 20.7208 3.17279 20.8333C3.28531 20.9458 3.43795 21.009 3.59708 21.009L4.19705 21ZM6.62607 21V18.609H5.39206V21H6.62607ZM8.42606 9.45798L7.47406 10.171L10.5351 14.424L11.2651 13.409L8.42706 9.45602L8.42606 9.45798ZM7.72607 8.48703L4.07907 3.40903C3.97968 3.29708 3.84202 3.22632 3.69315 3.21066C3.54427 3.195 3.39492 3.23556 3.27441 3.32437C3.15391 3.41318 3.07095 3.5438 3.04184 3.69064C3.01273 3.83748 3.03956 3.98994 3.11707 4.11801L6.77405 9.19998L7.72607 8.48703Z" fill="white"/>
</g>
</svg>
