<svg width="26" height="27" viewBox="0 0 26 27" fill="none" xmlns="http://www.w3.org/2000/svg">
<path fill-rule="evenodd" clip-rule="evenodd" d="M4.25589 11.8307C4.03653 11.3364 4.16637 10.7749 4.551 10.4189L10.4085 4.9976L10.4098 4.99643C10.657 4.76656 10.9793 4.65003 11.2987 4.65003C11.6204 4.65003 11.9408 4.76801 12.1867 4.99555L18.0455 10.4181L18.0466 10.4191C18.4289 10.7721 18.5654 11.3354 18.3403 11.8352C18.1236 12.3177 17.6421 12.5876 17.159 12.5876L15.3019 12.5876V12.8827C15.3019 16.003 17.5703 18.8688 20.9084 19.7812C21.4306 19.9242 21.8496 20.3943 21.8496 20.9917C21.8496 21.0292 21.8474 21.0645 21.8471 21.0688L21.8466 21.0778L21.8459 21.0864C21.7971 21.7195 21.2937 22.1613 20.7373 22.2365C17.3793 22.6896 13.9712 21.7735 11.3866 19.7053C9.11877 17.8905 7.68431 15.3462 7.36389 12.5871L5.43899 12.5871C4.9554 12.5871 4.4734 12.3166 4.257 11.8332L4.25589 11.8307ZM6.54793 10.8871H8.97199L9.00088 11.7071C9.09077 14.2586 10.3247 16.6783 12.4487 18.3779C14.1407 19.7318 16.2601 20.5175 18.4682 20.6347C15.5442 19.0903 13.6019 16.15 13.6019 12.8827V10.8876H16.0501L11.2987 6.49006L6.54793 10.8871Z" fill="#262626"/>
</svg>
