<svg width="19" height="21" viewBox="0 0 19 21" fill="none" xmlns="http://www.w3.org/2000/svg">
<path fill-rule="evenodd" clip-rule="evenodd" d="M17.495 0H4.78497C4.60922 0.000264496 4.44075 0.0701787 4.31647 0.194458C4.19219 0.318737 4.12227 0.487207 4.12201 0.662964V10.278H0.663025C0.487186 10.278 0.31855 10.3478 0.194214 10.4722C0.0698773 10.5965 0 10.7652 0 10.941V18.322C0.000793948 18.9922 0.267413 19.6347 0.741333 20.1086C1.21525 20.5826 1.85779 20.8492 2.52802 20.85H15.651C16.3165 20.8492 16.9544 20.5844 17.425 20.1139C17.8955 19.6433 18.1602 19.0054 18.161 18.34V0.662964C18.161 0.487125 18.0911 0.31855 17.9668 0.194214C17.8425 0.0698773 17.6738 0 17.498 0H17.495ZM8.10199 16.5859C7.92615 16.5859 7.75752 16.5162 7.63318 16.3918C7.50884 16.2675 7.43903 16.0988 7.43903 15.923C7.43903 15.7471 7.50884 15.5786 7.63318 15.4542C7.75752 15.3299 7.92615 15.26 8.10199 15.26H14.326C14.5018 15.26 14.6705 15.3299 14.7948 15.4542C14.9191 15.5786 14.989 15.7471 14.989 15.923C14.989 16.0988 14.9191 16.2675 14.7948 16.3918C14.6705 16.5162 14.5018 16.5859 14.326 16.5859H8.10199ZM8.10199 12.921C7.92615 12.921 7.75752 12.8511 7.63318 12.7268C7.50884 12.6025 7.43903 12.4338 7.43903 12.2579C7.43903 12.0821 7.50884 11.9135 7.63318 11.7892C7.75752 11.6648 7.92615 11.595 8.10199 11.595H14.326C14.5018 11.595 14.6705 11.6648 14.7948 11.7892C14.9191 11.9135 14.989 12.0821 14.989 12.2579C14.989 12.4338 14.9191 12.6025 14.7948 12.7268C14.6705 12.8511 14.5018 12.921 14.326 12.921H8.10199ZM8.10199 9.25696C7.92615 9.25696 7.75752 9.18708 7.63318 9.06274C7.50884 8.93841 7.43903 8.76983 7.43903 8.59399C7.43903 8.41816 7.50884 8.24946 7.63318 8.12512C7.75752 8.00079 7.92615 7.93103 8.10199 7.93103H14.326C14.5018 7.93103 14.6705 8.00079 14.7948 8.12512C14.9191 8.24946 14.989 8.41816 14.989 8.59399C14.989 8.76983 14.9191 8.93841 14.7948 9.06274C14.6705 9.18708 14.5018 9.25696 14.326 9.25696H8.10199ZM8.10199 5.59192C7.92615 5.59192 7.75752 5.52216 7.63318 5.39783C7.50884 5.27349 7.43903 5.10479 7.43903 4.92896C7.43903 4.75312 7.50884 4.58454 7.63318 4.46021C7.75752 4.33587 7.92615 4.26599 8.10199 4.26599H14.326C14.5018 4.26599 14.6705 4.33587 14.7948 4.46021C14.9191 4.58454 14.989 4.75312 14.989 4.92896C14.989 5.10479 14.9191 5.27349 14.7948 5.39783C14.6705 5.52216 14.5018 5.59192 14.326 5.59192H8.10199ZM2.52899 19.5239C2.21073 19.5239 1.90552 19.3975 1.68048 19.1725C1.45544 18.9474 1.32898 18.6422 1.32898 18.324V11.606H4.12903C4.12903 19.013 4.16799 19.112 4.02899 19.381C3.93799 19.561 3.61099 19.526 2.52899 19.526V19.5239ZM16.829 18.34C16.8287 18.6539 16.7039 18.9549 16.4819 19.1769C16.2599 19.3989 15.959 19.5237 15.645 19.5239H5.36499C5.48199 19.0059 5.44598 20.059 5.44598 1.32397H16.829V18.34Z" fill="white"/>
</svg>
