<svg width="23" height="20" viewBox="0 0 23 20" fill="none" xmlns="http://www.w3.org/2000/svg">
<path fill-rule="evenodd" clip-rule="evenodd" d="M22.0919 6.67005H21.3358V2.00306C21.3393 1.91336 21.3247 1.82389 21.2928 1.74C21.2608 1.6561 21.2123 1.57947 21.1501 1.51478C21.0878 1.45009 21.0132 1.39869 20.9306 1.36353C20.848 1.32838 20.7591 1.31019 20.6693 1.31019C20.5796 1.31019 20.4908 1.32838 20.4082 1.36353C20.3256 1.39869 20.2509 1.45009 20.1887 1.51478C20.1265 1.57947 20.0779 1.6561 20.046 1.74C20.0141 1.82389 19.9994 1.91336 20.0028 2.00306V6.67005H18.6689V3.33704C18.6723 3.24735 18.6577 3.15788 18.6258 3.07398C18.5938 2.99009 18.5453 2.91345 18.4831 2.84876C18.4208 2.78407 18.3462 2.73267 18.2636 2.69752C18.181 2.66236 18.0921 2.64417 18.0023 2.64417C17.9126 2.64417 17.8238 2.66236 17.7412 2.69752C17.6586 2.73267 17.5839 2.78407 17.5217 2.84876C17.4595 2.91345 17.4109 2.99009 17.379 3.07398C17.3471 3.15788 17.3324 3.24735 17.3358 3.33704V6.67005H16.0019V4.67005C16.0019 4.49328 15.9317 4.32373 15.8067 4.19874C15.6817 4.07374 15.5121 4.00355 15.3354 4.00355C15.1586 4.00355 14.9891 4.07374 14.8641 4.19874C14.7391 4.32373 14.6689 4.49328 14.6689 4.67005V6.67005H14.0019C13.9122 6.66658 13.8227 6.68121 13.7388 6.71314C13.6549 6.74507 13.5783 6.79361 13.5136 6.85584C13.4489 6.91808 13.3975 6.99273 13.3623 7.07532C13.3272 7.15792 13.309 7.24679 13.309 7.33656C13.309 7.42632 13.3272 7.51519 13.3623 7.59779C13.3975 7.68038 13.4489 7.75503 13.5136 7.81727C13.5783 7.8795 13.6549 7.92804 13.7388 7.95997C13.8227 7.9919 13.9122 8.00653 14.0019 8.00306H22.0919C22.1816 8.00653 22.2711 7.9919 22.3549 7.95997C22.4388 7.92804 22.5154 7.8795 22.5801 7.81727C22.6448 7.75503 22.6963 7.68038 22.7314 7.59779C22.7666 7.51519 22.7847 7.42632 22.7847 7.33656C22.7847 7.24679 22.7666 7.15792 22.7314 7.07532C22.6963 6.99273 22.6448 6.91808 22.5801 6.85584C22.5154 6.79361 22.4388 6.74507 22.3549 6.71314C22.2711 6.68121 22.1816 6.66658 22.0919 6.67005ZM20.6689 9.33704C20.7565 9.33691 20.8433 9.35411 20.9243 9.38758C21.0053 9.42105 21.0788 9.47015 21.1408 9.53211C21.2027 9.59407 21.2519 9.66768 21.2854 9.74866C21.3188 9.82965 21.336 9.91641 21.3358 10.004C21.3361 11.7329 20.8882 13.4322 20.0358 14.9363C19.1834 16.4404 17.9556 17.6978 16.4723 18.5858C14.9889 19.4738 13.3006 19.9621 11.5723 20.0029C9.84394 20.0438 8.13454 19.636 6.61087 18.8191L6.24588 19.4031C6.15211 19.553 6.00257 19.6596 5.83023 19.6993C5.65789 19.7391 5.47686 19.7087 5.32687 19.615C3.1706 18.2652 1.53038 16.2301 0.669523 13.8363C-0.191337 11.4425 -0.222916 8.82894 0.579863 6.41505C0.635983 6.24754 0.756232 6.10909 0.914274 6.03016C1.07232 5.95123 1.25526 5.93826 1.42288 5.99403L2.07687 6.21204C2.82753 4.37347 4.10925 2.80049 5.75833 1.69398C7.40741 0.587465 9.34896 -0.00236742 11.3349 7.14152e-06C11.5118 7.14152e-06 11.6814 0.0703549 11.8065 0.195442C11.9316 0.320528 12.0019 0.4901 12.0019 0.666999V9.33399L20.6689 9.33704ZM10.6689 1.36207C9.08096 1.48259 7.55715 2.03885 6.2651 2.96973C4.97306 3.90061 3.96289 5.17001 3.34585 6.63807L10.6689 9.07801V1.36207ZM5.48184 18.113L10.3219 10.368L1.65585 7.47999C1.14958 9.43151 1.24394 11.4904 1.92654 13.3875C2.60915 15.2845 3.84822 16.9315 5.48184 18.113ZM11.3358 18.6701C13.5184 18.6677 15.6199 17.843 17.2216 16.3604C18.8232 14.8777 19.8074 12.8459 19.9779 10.6701H11.7058L7.32089 17.686C8.56015 18.3334 9.9377 18.671 11.3358 18.6701Z" fill="white"/>
</svg>
