<svg width="22" height="20" viewBox="0 0 22 20" fill="none" xmlns="http://www.w3.org/2000/svg">
<g clip-path="url(#clip0_1142_3258)">
<path fill-rule="evenodd" clip-rule="evenodd" d="M8.74294 9.47501H9.84981C10.1556 9.48816 10.459 9.41405 10.7271 9.26072C10.8781 9.17027 11.0035 9.04005 11.0907 8.88316C11.1778 8.72628 11.2236 8.54828 11.2234 8.36714C11.2126 8.16278 11.1625 7.96273 11.0762 7.77874C10.9899 7.59475 10.8691 7.43052 10.7209 7.29571L7.06681 3.49643C6.68029 3.09667 6.1571 2.87223 5.61172 2.87223C5.06633 2.87223 4.54314 3.09667 4.15662 3.49643L0.505313 7.29215C0.356246 7.42642 0.23469 7.59046 0.147881 7.77452C0.0610717 7.95859 0.0107823 8.15891 0 8.36358C0 8.91644 0.424187 9.47501 1.375 9.47501H2.38012C2.53099 12.1051 3.5634 14.5974 5.29818 16.5193C7.03296 18.4412 9.36063 19.6714 11.8772 19.9964C12.0188 20.014 12.162 19.9823 12.2844 19.9063C12.4068 19.8303 12.5015 19.7143 12.5537 19.5764C12.5831 19.4985 12.599 19.4158 12.6005 19.3322C12.6004 19.2264 12.5765 19.1222 12.5307 19.0278C12.4848 18.9334 12.4183 18.8514 12.3365 18.7886C10.958 17.7416 9.89033 16.3135 9.25499 14.6669C8.61965 13.0202 8.44223 11.2213 8.74294 9.47501ZM9.44625 0.425007C9.49794 0.286992 9.59268 0.170962 9.71532 0.0954718C9.83795 0.0199818 9.98141 -0.0106156 10.1227 0.00857304C12.639 0.333176 14.9664 1.56264 16.7014 3.48368C18.4364 5.40471 19.4694 7.89612 19.6212 10.5257H20.6229C21.5731 10.5257 21.9979 11.0843 21.9979 11.6371C21.9868 11.8417 21.9363 12.0419 21.8495 12.2259C21.7627 12.4099 21.6414 12.574 21.4926 12.7086L17.8386 16.5071C17.4529 16.9074 16.93 17.1323 16.3848 17.1323C15.8397 17.1323 15.3168 16.9074 14.9311 16.5071L11.2771 12.7086C11.1283 12.574 11.0069 12.4099 10.9202 12.2259C10.8334 12.0419 10.7829 11.8417 10.7717 11.6371C10.7717 11.0843 11.1987 10.5257 12.1467 10.5257H13.2536C13.5583 8.7795 13.3831 6.97944 12.7483 5.33191C12.1134 3.68437 11.0445 2.25605 9.66419 1.21071C9.54892 1.12359 9.4649 0.999028 9.42542 0.856722C9.38595 0.714415 9.39328 0.562501 9.44625 0.425007ZM18.3473 11.1929C18.3475 11.3705 18.4155 11.5408 18.5364 11.6664C18.6573 11.792 18.8212 11.8627 18.9922 11.8629H20.4786L16.929 15.5557C16.7842 15.7051 16.5885 15.7889 16.3845 15.7889C16.1805 15.7889 15.9848 15.7051 15.84 15.5557L12.2877 11.8629H13.7747C13.9203 11.8636 14.0617 11.8129 14.1758 11.7191C14.2899 11.6252 14.3698 11.4938 14.4024 11.3464C14.9779 8.82907 14.6657 6.18077 13.5224 3.88215C13.175 3.19138 12.7583 2.54063 12.2794 1.94072C14.0678 2.67198 15.603 3.94552 16.6852 5.59564C17.7674 7.24577 18.3465 9.19609 18.3473 11.1929ZM9.71919 18.0564C7.93018 17.3258 6.39434 16.0525 5.31159 14.4023C4.22885 12.7521 3.64935 10.8014 3.64856 8.80428C3.64874 8.71625 3.63219 8.62904 3.59984 8.54766C3.5675 8.46629 3.52 8.39236 3.46009 8.33011C3.40017 8.26785 3.32901 8.21851 3.25068 8.18491C3.17236 8.1513 3.08842 8.1341 3.00369 8.13429H1.51594L5.06825 4.44144C5.21245 4.29209 5.40776 4.20822 5.61137 4.20822C5.81499 4.20822 6.0103 4.29209 6.1545 4.44144L9.70681 8.13429H8.22044C8.07517 8.13455 7.93423 8.18565 7.82034 8.27935C7.70646 8.37305 7.62628 8.50387 7.59275 8.65072C7.40637 9.46998 7.31179 10.3089 7.31087 11.1507C7.31052 12.8795 7.70993 14.583 8.4755 16.1179C8.81947 16.8108 9.23635 17.4619 9.7185 18.0593L9.71919 18.0564Z" fill="white"/>
</g>
<defs>
<clipPath id="clip0_1142_3258">
<rect width="22" height="20" fill="white"/>
</clipPath>
</defs>
</svg>
